<?xml version="1.0" encoding="utf-8"?>
<!-- Generator: Adobe Illustrator 15.0.0, SVG Export Plug-In . SVG Version: 6.00 Build 0)  -->
<!DOCTYPE svg PUBLIC "-//W3C//DTD SVG 1.1//EN" "http://www.w3.org/Graphics/SVG/1.1/DTD/svg11.dtd">
<svg version="1.1" id="Layer_1" xmlns="http://www.w3.org/2000/svg" xmlns:xlink="http://www.w3.org/1999/xlink" x="0px" y="0px"
	 width="142.896px" height="141.73px" viewBox="57.584 0 142.896 141.73" enable-background="new 57.584 0 142.896 141.73"
	 xml:space="preserve">
<g>
	<g>
		<path fill="none" stroke="#000000" d="M148.781,65.893h-13.225c-14.507,0-22.184-6.404-22.184-18.361
			c0-11.956,7.677-15.8,22.184-15.8h13.225V65.893z"/>
		<path fill="none" stroke="#000000" d="M148.547,115.808l0.391,25.663h36.691V65.919h-36.691l-37.97,75.553H70.013l30.074-53.8
			c-13.438-7.261-22.396-20.282-22.396-40.14c0-34.592,25.596-44.84,55.462-44.84h47.513"/>
	</g>
</g>
<g>
	<path fill="#3C93DB" d="M185.263,2.338c0.15,1.442-0.896,2.734-2.34,2.886c-1.443,0.15-2.734-0.896-2.885-2.34
		c-0.15-1.437,0.888-2.726,2.324-2.884c1.441-0.16,2.74,0.879,2.899,2.321c0.001,0,0.001,0.001,0.001,0.001"/>
</g>
<g>
	<path fill="#EB5834" d="M151.092,113.335c0.159,1.441-0.88,2.739-2.322,2.898s-2.739-0.881-2.899-2.322
		c-0.158-1.441,0.88-2.739,2.321-2.899c1.442-0.159,2.74,0.88,2.9,2.321C151.092,113.334,151.092,113.334,151.092,113.335"/>
</g>
</svg>
