<?xml version="1.0" encoding="utf-8"?>
<!-- Generator: Adobe Illustrator 15.0.0, SVG Export Plug-In . SVG Version: 6.00 Build 0)  -->
<!DOCTYPE svg PUBLIC "-//W3C//DTD SVG 1.1//EN" "http://www.w3.org/Graphics/SVG/1.1/DTD/svg11.dtd">
<svg version="1.1" id="Layer_1" xmlns="http://www.w3.org/2000/svg" xmlns:xlink="http://www.w3.org/1999/xlink" x="0px" y="0px"
	 width="40.125px" height="48.75px" viewBox="0 0 40.125 48.75" enable-background="new 0 0 40.125 48.75" xml:space="preserve">
<g display="none">
	<g display="inline">
		<path fill="none" stroke="#010101" stroke-width="0.3119" d="M26.401,23.896h-4.124c-4.524,0-6.918-1.997-6.918-5.727
			c0-3.729,2.394-4.927,6.918-4.927h4.124V23.896z"/>
		<path fill="none" stroke="#010101" stroke-width="0.3119" d="M26.328,39.463l0.122,8.004h11.443V23.903H26.45L14.608,47.467H1.835
			l9.379-16.779c-4.19-2.264-6.985-6.325-6.985-12.519c0-10.788,7.983-13.983,17.297-13.983h14.817"/>
	</g>
</g>
<g>
	<path fill="none" stroke="#000000" stroke-width="1.5" d="M37.611,22.848l0.026,23.457h-11.33v-8.617 M26.308,22.96L14.377,46.305
		H2.143l9.055-16.57c-4.239-2.532-7.106-6.847-7.106-12.102c0-8.927,5.165-14.539,15.311-14.539h18.389 M26.308,12.307h-6.461
		c-2.869,0-4.597,2.848-4.597,5.443s1.693,5.219,4.563,5.219l6.495-0.009V12.307z"/>
</g>
<g>
	<path fill="#EC5933" d="M28.672,37.896c0.144,1.306-0.797,2.48-2.103,2.625c-1.306,0.145-2.48-0.797-2.625-2.103
		c-0.144-1.306,0.797-2.48,2.102-2.626C27.351,35.649,28.526,36.59,28.672,37.896C28.672,37.896,28.672,37.896,28.672,37.896"/>
</g>
<g>
	<path fill="#4492CF" d="M39.33,2.847c0.136,1.306-0.812,2.476-2.119,2.613c-1.307,0.136-2.476-0.813-2.612-2.119
		c-0.136-1.301,0.804-2.468,2.105-2.611c1.305-0.145,2.481,0.796,2.625,2.102c0,0,0,0,0,0"/>
</g>
<path fill="none" stroke="#EE2424" stroke-width="0.3119" d="M20.66,3.562"/>
<path fill="none" stroke="#EE2424" stroke-width="0.3119" d="M11.198,30.046"/>
<path display="none" fill="none" stroke="#318A42" stroke-width="0.3244" d="M35.465,17.859c0,8.21-5.711,15.212-14.119,15.212
	c-8.407,0-17.118-3.844-17.118-15.071c0-9.901,7.606-13.754,16.014-13.754S35.465,9.649,35.465,17.859z"/>
<line display="none" fill="none" stroke="#138040" stroke-width="0.3119" x1="18.964" y1="4.276" x2="36.624" y2="4.16"/>
<path display="none" fill="none" stroke="#000000" stroke-width="2" d="M26.308,22.969"/>
<line fill="none" stroke="#000000" stroke-width="1.5131" x1="26.513" y1="22.969" x2="38.362" y2="22.969"/>
</svg>
