<?xml version="1.0" encoding="UTF-8" standalone="no"?>
<svg width="56px" height="56px" viewBox="0 0 56 56" version="1.1" xmlns="http://www.w3.org/2000/svg" xmlns:xlink="http://www.w3.org/1999/xlink">
    <!-- Generator: Sketch 47.1 (45422) - http://www.bohemiancoding.com/sketch -->
    <title>Group 9</title>
    <desc>Created with Sketch.</desc>
    <defs></defs>
    <g id="Страница-трансляции" stroke="none" stroke-width="1" fill="none" fill-rule="evenodd">
        <g id="страница-трансляции-768-авторизация" transform="translate(-387.000000, -1432.000000)">
            <g id="Group-8" transform="translate(132.000000, 1331.000000)">
                <g id="Group-9" transform="translate(255.000000, 101.000000)">
                    <circle id="Oval" fill="#ED1F25" fill-rule="nonzero" cx="28" cy="28" r="28"></circle>
                    <g id="yandex_cyr_icon-icons.com_59870" transform="translate(22.000000, 16.000000)"></g>
                    <path d="M33.6321417,16 L29.8218413,16 C26.0778171,16 22.9027337,18.8048505 22.9027337,24.2503286 C22.9027337,27.5171226 24.4402761,29.9257516 27.1806407,31.1139231 L22.0670185,40.2220881 C21.8996585,40.5193979 22.0670185,40.75 22.3342938,40.75 L24.7076349,40.75 C24.9079661,40.75 25.042355,40.6841959 25.1091321,40.5193979 L29.7550642,31.5760309 L31.4262442,31.5760309 L31.4262442,40.5193979 C31.4262442,40.6177345 31.5261594,40.75 31.6598806,40.75 L33.7326412,40.75 C33.9329725,40.75 34,40.6510062 34,40.4867013 L34,16.3300066 C33.9999165,16.0989938 33.8661954,16 33.6321417,16 Z M31.4261608,29.464301 L30.0223395,29.464301 C27.816442,29.464301 25.6774051,27.8803188 25.6774051,23.9204042 C25.6774051,19.7947059 27.6827209,18.111812 29.7214253,18.111812 L31.4262442,18.111812 L31.4262442,29.464301 L31.4261608,29.464301 Z" id="path40" fill="#FFFFFF" fill-rule="nonzero"></path>
                </g>
            </g>
        </g>
    </g>
</svg>