<?xml version="1.0" encoding="UTF-8" standalone="no"?>
<svg width="56px" height="56px" viewBox="0 0 56 56" version="1.1" xmlns="http://www.w3.org/2000/svg" xmlns:xlink="http://www.w3.org/1999/xlink">
    <!-- Generator: Sketch 47.1 (45422) - http://www.bohemiancoding.com/sketch -->
    <title>google +</title>
    <desc>Created with Sketch.</desc>
    <defs></defs>
    <g id="Страница-трансляции" stroke="none" stroke-width="1" fill="none" fill-rule="evenodd">
        <g id="страница-трансляции-768-авторизация" transform="translate(-318.000000, -1432.000000)" fill-rule="nonzero">
            <g id="Group-8" transform="translate(132.000000, 1331.000000)">
                <g id="google-+" transform="translate(186.000000, 101.000000)">
                    <path d="M56,28 C56,43.463392 43.463392,56 28,56 C12.536496,56 0,43.463392 0,28 C0,12.536496 12.536496,0 28,0 C43.463392,-2.18847163e-15 56,12.536496 56,28 L56,28 Z" id="Shape" fill="#DC4F42"></path>
                    <path d="M9.17066985,29.0324329 C9.0717652,33.9185996 12.3579054,38.5797664 16.8769164,40.09968 C21.1330317,41.5658707 26.3662185,40.4704017 29.1987501,36.7360392 C31.2664338,34.1187257 31.737007,30.631511 31.5125866,27.3740666 C27.8668637,27.339425 24.2212517,27.3521459 20.5828469,27.3564619 C20.5756397,28.6864714 20.5828469,30.0111428 20.5876147,31.3408116 C22.7687283,31.4025986 24.9521704,31.3754532 27.1358342,31.4198626 C26.5857602,33.3550208 25.3286068,35.1542251 23.425025,35.8536443 C19.7455947,37.5120106 15.0552746,35.3445834 13.8971367,31.3927172 C12.500164,27.6063356 14.7873894,23.0390986 18.563285,21.9393136 C20.9036217,21.0965577 23.3163629,22.0456235 25.3189602,23.2915846 C26.3324002,22.3202574 27.2829715,21.2795334 28.216689,20.2291552 C25.9391101,18.2791181 23.0148811,17.0829046 20.0086012,17.3449312 C14.1095821,17.4168267 8.94658208,22.9946892 9.17066985,29.0324329 L9.17066985,29.0324329 Z" id="Shape" fill="#DC4F42"></path>
                    <path d="M38.7066328,24.4363636 C38.6976331,25.4515348 38.6864609,26.4684641 38.6819093,27.4811531 C37.6622448,27.4903575 36.6493042,27.4965627 35.6363636,27.5014235 L35.6363636,30.5349402 C36.6493042,30.5394907 37.6689687,30.5439377 38.6819093,30.5552105 C38.6909091,31.5678996 38.6909091,32.5811057 38.7021847,33.6 C39.7105736,33.6 40.7235142,33.5932777 41.7364548,33.6 C41.7410064,32.5810023 41.7454545,31.5678996 41.7567301,30.55066 C42.7696707,30.546213 43.7870594,30.5394907 44.8,30.5349402 L44.8,27.5014235 C43.7870594,27.4966661 42.7696707,27.4921157 41.7567301,27.4811531 C41.7493855,26.4684641 41.7410064,25.4515348 41.7364548,24.4388457 C40.7235142,24.4363636 39.7151252,24.4363636 38.7066328,24.4363636 L38.7066328,24.4363636 Z" id="Shape" fill="#DC4F42"></path>
                    <path d="M9.17067006,29.0325465 C8.94657549,22.9946892 14.1097321,17.4169403 20.0090411,17.3449312 C23.0154122,17.0829046 25.93973,18.2791181 28.2173779,20.2291552 C27.2836321,21.2795334 26.333032,22.3203709 25.3195613,23.2915846 C23.3145746,22.0456235 20.9041997,21.094059 18.5613525,21.9393136 C14.7853423,23.0390986 12.4979366,27.6064491 13.8973912,31.3902185 C15.0531248,35.3445834 19.7460266,37.5120106 23.4255685,35.8512591 C25.3292081,35.1542251 26.5838494,33.3550208 27.1364903,31.4198626 C24.9528711,31.3753396 22.769252,31.4025986 20.5880722,31.3408116 C20.5808648,30.0111428 20.5759859,28.6864714 20.5808648,27.3564619 C24.2218194,27.3493064 27.867542,27.339425 31.5133755,27.3715679 C31.7353633,30.631511 31.2672152,34.1187257 29.1970294,36.7360392 C26.3668513,40.4704017 21.1333949,41.5658707 16.8748218,40.09968 C12.3580023,38.57988 9.07165153,33.9187132 9.17067006,29.0325465 L9.17067006,29.0325465 Z" id="Shape" fill="#FFFFFF"></path>
                    <path d="M38.7066328,24.4363636 L41.7364548,24.4363636 C41.7410064,25.4517869 41.7493855,26.4689687 41.7567301,27.4819093 C42.7696707,27.491116 43.7870594,27.4973227 44.8,27.5021847 L44.8,30.5364548 C43.7870594,30.5410064 42.7696707,30.5454545 41.7567301,30.5521785 C41.7454545,31.5696707 41.7410064,32.5831285 41.7364548,33.6 C40.7235142,33.5955518 39.7084013,33.6 38.7021847,33.6 C38.6909091,32.5831285 38.6909091,31.5696707 38.6819093,30.5567301 C37.6689687,30.5454545 36.6493042,30.5410064 35.6363636,30.5364548 L35.6363636,27.5021847 C36.6493042,27.4951504 37.6622448,27.4912194 38.6819093,27.4819093 C38.6863575,26.4690722 38.6953573,25.4518903 38.7066328,24.4363636 L38.7066328,24.4363636 Z" id="Shape" fill="#FFFFFF"></path>
                </g>
            </g>
        </g>
    </g>
</svg>